<?xml version="1.0" encoding="utf-8"?>
<!-- Generator: Adobe Illustrator 26.0.3, SVG Export Plug-In . SVG Version: 6.00 Build 0)  -->
<svg version="1.1" id="Ebene_1" xmlns="http://www.w3.org/2000/svg" xmlns:xlink="http://www.w3.org/1999/xlink" x="0px" y="0px"
	 viewBox="0 0 170 297" style="enable-background:new 0 0 170 297;" xml:space="preserve">
<style type="text/css">
	.st0{fill:#FFFFFF;}
</style>
<g>
	<path class="st0" d="M84.94,211.91c13.93,0,27.87,0,41.99,0c0-14.18,0-27.9,0-41.92c-13.99,0-27.71,0-41.85,0
		c0,14.17,0,28.11,0,42.06c-13.94,0-27.89,0-42.01,0c0,14.24,0,27.98,0,42c14,0,27.72,0,41.87,0
		C84.94,239.82,84.94,225.87,84.94,211.91z"/>
	<path d="M42,0c0.15,12.03,0.27,24.06,0.49,36.09c0.03,1.9,0.51,3.8,0.78,5.69l0.13-0.14C28.93,41.76,14.47,41.88,0,42
		C0,28,0,14,0,0C14,0,28,0,42,0z"/>
	<path d="M126.61,127.35c14.46-0.12,28.92-0.23,43.39-0.35c0,14,0,28,0,42c-13.94,0-27.87,0-42.46,0c0-11.67,0.04-23.1-0.04-34.54
		c-0.02-2.42-0.49-4.84-0.76-7.26L126.61,127.35z"/>
	<path d="M0,255c13.94,0,27.88,0,42,0c0,14.18,0,28.09,0,42c-14,0-28,0-42,0C0,283,0,269,0,255z"/>
	<path d="M43.27,41.78c13.64,0,27.28,0,41.33,0c0,14.25,0,28.1,0,42.25c-13.77,0-27.48,0-41.8,0c0-11.97-0.03-23.74,0.03-35.5
		c0.01-2.29,0.37-4.58,0.57-6.88C43.4,41.64,43.27,41.78,43.27,41.78z"/>
	<path d="M126.75,127.21c-13.76,0-27.51,0-41.51,0c0-14.42,0-28.15,0-42.17c13.92,0,27.63,0,41.97,0c0,7.75,0.08,15.35-0.02,22.95
		c-0.08,6.45-0.37,12.91-0.57,19.36C126.61,127.35,126.75,127.21,126.75,127.21z"/>
	<path d="M85.08,212.05c0-13.94,0-27.89,0-42.06c14.14,0,27.86,0,41.85,0c0,14.01,0,27.74,0,41.92c-14.13,0-28.06,0-41.99,0
		L85.08,212.05z"/>
	<path d="M84.94,211.91c0,13.96,0,27.91,0,42.14c-14.14,0-27.86,0-41.87,0c0-14.02,0-27.75,0-42c14.12,0,28.06,0,42.01,0
		C85.08,212.05,84.94,211.91,84.94,211.91z"/>
</g>
</svg>
